<svg width="363" height="317" viewBox="0 0 363 317" fill="none" xmlns="http://www.w3.org/2000/svg">
<path d="M334.358 28.9067C325.526 20.0494 315.04 13.0232 303.499 8.22946C291.957 3.43571 279.587 0.968357 267.094 0.968357C254.601 0.968357 242.23 3.43571 230.689 8.22946C219.147 13.0232 208.661 20.0494 199.829 28.9067L181.5 47.28L163.171 28.9067C145.331 11.024 121.135 0.977626 95.9062 0.977626C70.6771 0.977627 46.4813 11.024 28.6417 28.9067C10.802 46.7893 0.779755 71.0434 0.779755 96.3333C0.779754 121.623 10.802 145.877 28.6417 163.76L46.9708 182.133L181.5 316.987L316.029 182.133L334.358 163.76C343.194 154.907 350.204 144.395 354.986 132.826C359.768 121.257 362.229 108.856 362.229 96.3333C362.229 83.8102 359.768 71.4098 354.986 59.8405C350.204 48.2712 343.194 37.7598 334.358 28.9067V28.9067Z" fill="#D9463D"/>
</svg>
